<svg xmlns="http://www.w3.org/2000/svg" width="3000" height="1461" viewBox="0 0 3000 1460.799"><style><![CDATA[.B{fill-rule:evenodd}.C{fill:#fbfbed}]]></style><path d="M120.88 432.66C65.17 432.66 20 477.74 20 533.36v805.6c0 55.62 45.17 100.7 100.88 100.7h1898.24c55.7 0 100.88-45.08 100.88-100.7v-805.6c0-55.62-45.17-100.7-100.88-100.7H120.88z" fill="#fff" class="B"/><g transform="matrix(1.409524 0 0 1.409524 20 19.801256)"><radialGradient gradientUnits="userSpaceOnUse" r="847.355" cy="541.585" cx="1032.27" id="A"><stop offset="0" stop-color="#fff"/><stop offset=".99" stop-color="#fff"/></radialGradient><path d="M2100 920.29V86.77c-5.68-44.38-40.28-79.73-84.34-86.63H85.16C36.9 7.7 0 49.37 0 99.66V907.4c0 55.64 45.2 100.74 100.93 100.74H1999.9c51.36.001 93.76-38.3 100.1-87.85z" fill="url(#A)" class="B"/><radialGradient gradientUnits="userSpaceOnUse" gradientTransform="matrix(1,0,0,0.8718,0,1638.7767)" r="794.369" cy="-1827.189" cx="1041.999" id="B"><stop offset="0" stop-color="#fff"/><stop offset="1" stop-color="#fff" stop-opacity="0"/></radialGradient><g class="B"><path d="M90 .5h1920v352.64H90z" opacity=".4" fill="url(#B)"/><path d="M290 199.14h158.72v611H290z"/></g><path d="M448.72 199.14v611H290v-611h158.72m14-14H276v639h186.72v-639z" opacity=".3" class="C"/><path d="M787.22 199.14l-36.76 285.44-41.76-285.44H502.92v611h139.02l.5-403.43 58.5 403.43h99.02l55.5-412.4.5 412.4h138.58v-611H787.22z" class="B"/><path d="M994.56 199.14v611H855.98l-.5-412.4-55.5 412.4h-99.02l-58.5-403.43-.5 403.43H502.92v-611H708.7c6.05 37 12.4 80.4 19.02 130.22l22.74 155.22 36.76-285.44h207.34m14-14H774.907l-25.34 196.765-27.05-185.024-1.92-11.74H488.92v639h167.002l.28-225.003 32.633 225.004h123.378l29.52-219.313.266 219.313h166.563V185.14z" opacity=".3" class="C"/><path d="M1242.77 309.1c6.27 3.63 10.29 9.36 12.04 17.13 1.75 7.8 2.64 25.5 2.64 53.1v236.87c0 40.68-2.64 65.6-7.9 74.75-5.27 9.18-19.32 13.75-42.13 13.75V303.64c17.29 0 29.09 1.82 35.36 5.46zm-1.64 501.04c38.02 0 66.48-2.07 85.38-6.22 18.89-4.14 34.75-11.43 47.6-21.85 12.84-10.42 21.84-24.86 27-43.34 5.16-18.45 8.23-55.08 8.23-109.84V414.3c0-57.8-2.26-96.54-5.78-116.26-3.53-19.7-12.34-37.6-26.45-53.7-14.1-16.08-34.7-27.63-61.78-34.66-27.07-7.03-71.27-10.56-148.1-10.56h-118.42v611h192.3z" class="B"/><path d="M1167.26 199.14c76.82 0 121.02 3.53 148.1 10.56 27.08 7.03 47.68 18.58 61.78 34.66 14.1 16.08 22.92 33.98 26.45 53.7 3.52 19.72 5.78 58.47 5.78 116.26v214.58c0 54.76-3.07 91.39-8.23 109.84-5.17 18.48-14.17 32.92-27 43.34-12.86 10.42-28.72 17.7-47.6 21.85-18.9 4.15-47.36 6.22-85.38 6.22h-192.3v-611h118.42m40.15 505.57c22.8 0 36.86-4.57 42.13-13.75 5.27-9.16 7.9-34.07 7.9-74.75V379.34c0-27.62-.9-45.32-2.64-53.1-1.75-7.77-5.77-13.5-12.04-17.13-6.27-3.64-18.07-5.46-35.36-5.46v401.07m-40.15-519.57h-132.42v639h206.3c39.415 0 68.325-2.14 88.383-6.545 20.918-4.584 38.894-12.876 53.42-24.646 15.083-12.242 25.738-29.212 31.68-50.447 5.804-20.75 8.747-58.976 8.747-113.61v-214.58c0-55.685-2.074-96.737-5.997-118.72-3.974-22.187-13.97-42.527-29.7-60.464-15.91-18.144-39.053-31.258-68.785-38.977-29.318-7.615-76.077-11-151.608-11zm54.15 504.798V318.17c9.7.837 13.287 2.434 14.33 3.04 1.93 1.117 4.272 3.038 5.412 8.1.857 3.814 2.298 15.398 2.298 50.034v236.87c0 53.133-4.627 65.304-6.045 67.768-.31.543-2.918 4.31-15.995 5.96z" opacity=".3" class="C"/><path d="M1669.85 661.88c0 29.57-1.47 48.25-4.4 56.02-2.94 7.78-15.72 11.7-25.4 11.7-9.45 0-15.75-3.75-18.95-11.28-3.19-7.52-4.77-24.69-4.77-51.53V505.31c0-27.84 1.4-45.2 4.2-52.1 2.8-6.88 8.92-10.34 18.36-10.34 9.68 0 22.67 3.93 26 11.83 3.3 7.9 4.97 24.77 4.97 50.6v156.6zm-206.43-462.74v611h142.89l9.9-38.93c12.92 15.65 27.17 27.4 42.76 35.2 15.58 7.82 38.85 11.72 56.84 11.72 25.1 0 46.75-6.6 65-19.75 18.24-13.17 29.84-28.74 34.8-46.68 4.94-17.95 7.4-45.22 7.4-81.86V498.43c0-36.9-.83-60.97-2.47-72.26-1.66-11.3-6.52-22.83-14.62-34.62-8.1-11.78-19.88-20.94-35.34-27.47-15.45-6.54-33.67-9.8-54.69-9.8-18.24 0-41.62 3.63-57.2 10.83s-29.7 18.13-42.36 32.78V199.14h-152.9z" class="B"/><path d="M1616.32 199.14v198.75c12.66-14.65 26.78-25.58 42.36-32.78s38.96-10.83 57.2-10.83c21.02 0 39.24 3.26 54.69 9.8 15.46 6.53 27.23 15.7 35.34 27.47 8.1 11.8 12.96 23.33 14.62 34.62 1.64 11.3 2.47 35.37 2.47 72.26v171.42c0 36.64-2.47 63.9-7.4 81.86-4.95 17.94-16.55 33.5-34.8 46.68-18.25 13.16-39.9 19.75-65 19.75-17.99 0-41.26-3.9-56.84-11.72-15.6-7.82-29.84-19.56-42.76-35.2l-9.9 38.93h-142.89v-611h152.9m23.72 530.45c9.7 0 22.47-3.9 25.4-11.7 2.93-7.77 4.4-26.45 4.4-56.02v-156.6c0-25.82-1.66-42.7-4.97-50.6-3.32-7.9-16.31-11.83-26-11.83-9.44 0-15.56 3.46-18.36 10.34-2.8 6.9-4.2 24.26-4.2 52.1v161.47c0 26.84 1.58 44 4.77 51.53 3.2 7.53 9.5 11.28 18.95 11.28m-9.72-544.45h-180.9v639h167.78l6.378-25.105c9.17 8.122 18.9 14.78 29.106 19.898 19.42 9.747 46.14 13.206 63.117 13.206 27.957 0 52.58-7.535 73.188-22.395 20.81-15.025 34.3-33.297 40.098-54.31 5.326-19.357 7.914-47.35 7.914-85.584V498.43c0-37.864-.855-62.16-2.616-74.273-1.972-13.416-7.668-27.046-16.935-40.535-9.626-13.98-23.563-24.892-41.433-32.44-17.088-7.233-37.324-10.903-60.137-10.903-16.996 0-43.713 3.174-63.073 12.12-7.81 3.6-15.32 8.077-22.487 13.372V185.14zm9.72 530.45c-4.895 0-5.463-1.34-6.065-2.756-.854-2.015-3.655-11.317-3.655-46.054V505.31c0-36.195 2.434-44.993 3.18-46.827.26-.637.424-.73.597-.827.327-.185 1.64-.786 4.795-.786 6.29 0 11.826 2.32 13.24 3.653 1.232 3.274 3.72 13.748 3.72 44.768v156.6c0 35.3-2.144 46.825-3.28 50.443-1.54 1.235-6.737 3.266-12.53 3.266z" opacity=".3" class="C"/></g></svg>