<svg xmlns="http://www.w3.org/2000/svg" width="512" height="512" viewBox="0 0 314.068 314.068"><path d="M293.002 78.53C249.646 3.435 153.618-22.296 78.53 21.068 3.434 64.418-22.298 160.442 21.066 235.534c43.35 75.095 139.375 100.83 214.465 57.47 75.096-43.365 100.84-139.384 57.47-214.474zM219.834 265.8c-60.067 34.692-136.894 14.106-171.576-45.973C13.568 159.76 34.16 82.935 94.23 48.26c60.07-34.7 136.894-14.106 171.578 45.97s14.098 136.886-45.974 171.57zm-6.28-115.15l-82.214-47.95c-7.492-4.374-13.535-.877-13.493 7.79l.42 95.174c.038 8.664 6.155 12.19 13.67 7.85l81.585-47.103c7.506-4.332 7.522-11.388.032-15.762z" fill="#fe5b60"/></svg>