<svg xmlns="http://www.w3.org/2000/svg" viewBox="0 0 15 15"><path d="M14.982 7A7.5 7.5 0 0 0 8 .017V0H7v.017A7.5 7.5 0 0 0 .017 7H0v1h.017A7.5 7.5 0 0 0 7 14.982V15h1v-.018A7.5 7.5 0 0 0 14.982 8H15V7h-.018zM4.695 1.635C4.212 2.277 3.81 3.082 3.52 4H2.02C2.673 2.983 3.6 2.16 4.695 1.635zM1.498 5h1.758c-.134.632-.22 1.303-.246 2H1.02c.053-.704.22-1.377.48-2zm-.48 3H3c.027.697.112 1.368.246 2H1.498c-.26-.623-.426-1.296-.48-2zm1.002 3h1.497c.292.918.693 1.723 1.177 2.365C3.6 12.84 2.673 12.018 2.02 11zM7 13.936C5.972 13.66 5.087 12.557 4.55 11H7v2.936zM7 10H4.27c-.14-.623-.23-1.296-.26-2h3v2zm0-3H4c.03-.704.118-1.377.26-2H7v2zm0-3H4.55C5.087 2.443 5.972 1.34 7 1.065V4zm5.98 0h-1.496c-.293-.918-.693-1.723-1.178-2.365A6.54 6.54 0 0 1 12.979 4zM8 1.065C9.027 1.34 9.913 2.443 10.45 4H8V1.065zM8 5h2.73c.142.623.23 1.296.26 2H8V5zm0 3h3c-.03.704-.118 1.377-.26 2H8V8zm0 5.936V11h2.45c-.537 1.557-1.423 2.66-2.45 2.936zm2.305-.57c.483-.643.885-1.447 1.178-2.365h1.496c-.652 1.018-1.58 1.84-2.674 2.365zM13.502 10h-1.758c.134-.632.22-1.303.246-2h2c-.052.704-.218 1.377-.478 2zM12 7c-.027-.697-.112-1.368-.246-2h1.758c.26.623.426 1.296.48 2H12z" fill="#ffffff"/></svg>