<svg xmlns="http://www.w3.org/2000/svg" viewBox="0 0 398.963 398.963" width="512" height="512"><path d="M398.6 207.1a.984.984 0 0 0-.903-.178l-.968.288-.147.043-2.018.658c-10.032 3.986-17.93 10.815-24.146 20.876-1.535 2.486-2.724 5.07-3.67 7.647 1.553-8.668 1.913-12.045 2.188-21.744a38.8 38.8 0 0 0 .013-1.232c0-1.122 0-2.182.245-3.15.294-1.146.885-2.3 1.457-3.395l.455-.9a.662.662 0 0 1 .253-.154c2.87-.438 5.406-1.656 7.758-3.723 2.37-2.093 4.32-4.655 5.794-7.617 5.294-10.616 7.943-22.35 7.876-34.872-.006-1.208-.148-2.384-.304-3.663a71.108 71.108 0 0 1-.203-1.766.972.972 0 0 0-.536-.773.987.987 0 0 0-.943.047 17.03 17.03 0 0 1-.471.284c-.27.16-.474.285-.668.425-4.516 3.237-8.5 7.267-11.84 11.975-5.452 7.695-8.623 16.396-9.477 25.968l-.287-3.588-.963-12.763c-.07-1.077-.278-2.125-.478-3.14-.386-1.95-.75-3.8-.167-5.72.133-.436.245-.875.357-1.313.276-1.085 1.6-2.756 3.656-4.583l.077-.07c.755-.64 4.633-4.188 6.833-11.206 2.233-7.13 2.064-14.58 1.94-20.02l-.003-.145c-.164-7.478-.972-13.113-2.62-18.274a34.763 34.763 0 0 0-.734-1.995l-.427-1.1a.968.968 0 0 0-.745-.619l-.165-.015a.967.967 0 0 0-.75.357l-1.6 1.95c-7.676 9.362-11.447 20.342-11.2 32.636a63.38 63.38 0 0 0 .49 6.679 190.087 190.087 0 0 0-6.841-19.592 1.43 1.43 0 0 1-.093-.454l-.018-.862c-.027-1.244-.055-2.53-.002-3.797.008-.2.144-.587.427-.958.402-.53.848-1.05 1.3-1.6.787-.916 1.6-1.862 2.244-2.942 2.074-3.474 3.048-7.578 3.064-12.917.028-6.285-.94-12.9-3.053-20.816-1.154-4.32-2.896-9.93-6.14-15.017a14.84 14.84 0 0 0-.728-1.005 17.829 17.829 0 0 1-.368-.485c-.184-.247-.438-.4-.848-.4a.979.979 0 0 0-.782.499c-4.072 7.35-6.1 15.2-6.196 24.002a64.778 64.778 0 0 0 2.501 18.645A185.76 185.76 0 0 0 333.9 92.247l-.1-.14c-.1-.133-.142-.198-.135-.152a116.669 116.669 0 0 1-.602-4.946c.003-.02.03-.137.235-.48a25.53 25.53 0 0 1 .95-1.496c.68-1.034 1.382-2.104 1.832-3.302 1.358-3.616 1.663-7.717.93-12.533-1.6-10.66-6.308-20.257-14.362-29.344-.83-.933-1.745-1.758-2.714-2.63l-.268-.243-1.16-1.065a.975.975 0 0 0-.955-.225.983.983 0 0 0-.659.714l-.176.772c-.12.512-.213.916-.282 1.322-1.084 6.47-1.005 13.4.243 21.188 1.238 7.724 3.705 14.386 7.5 20.173-5.676-6.688-11.197-12.304-16.967-17.28a.569.569 0 0 1-.067-.163c.45-3.885-.507-7.545-2.93-11.2-3.183-4.8-7.606-8.44-13.146-10.847-3.315-1.438-6.75-2.7-10.113-3.958l-4.88-1.833c-1.667-.663-2.38-.78-2.767-.423-.498.464-.378.86-.16 1.58l.07.235c2.033 6.848 4.73 12.264 8.25 16.557 6.46 7.9 14.015 11.897 23.085 12.25.318.02.57.107.673.187 1.277.956 2.217 1.72 3.048 2.48a143.387 143.387 0 0 1 7.748 7.656c-3.766-2.34-8.37-3.396-13.553-3.134-2.837.143-5.653.56-8.376.96l-.104.016-2.405.348c-1.75.237-3.514.547-5.072.82-.63.113-2.138.456-2.485 1.187-.12.25-.1.524.026.773.12.217.252.42.396.607 4.497 5.835 9.627 9.678 15.683 11.747 7.384 2.536 14.166 2.327 20.26-.656.932-.513 2.056-.773 3.34-.773.97 0 1.696.153 1.937.208.36.06.85.262.95.392a176.035 176.035 0 0 1 10.746 15.896c-2.838-2.76-6.54-4.62-11.58-5.833-4.42-1.053-8.937-1.28-13.305-1.5l-1.463-.074-6.517-.392a.96.96 0 0 0-.775.394.965.965 0 0 0-.128.918c.095.258.268.713.357.865 4.607 7.706 10.017 13.036 16.537 16.296 6.374 3.184 12.133 4.026 17.942 2.637a9.8 9.8 0 0 1 2.256-.248c2.47 0 4.194.754 4.556 1.452a196.577 196.577 0 0 1 8.508 20.432c-2.58-3.557-6.188-6.446-10.756-8.607-4.538-2.142-9.263-4.1-13.912-6.027l-6-2.503a.969.969 0 0 0-1.359.888c0 .624 6.63 19.025 16.26 26.276 3.928 2.958 8.766 6 14.867 6.144 1.826.037 3.714.295 5.14 1.916.218.258.507.46.822.566.487.16.62.458.86 1.474a196.342 196.342 0 0 1 4.301 25.53 34.537 34.537 0 0 0-.936-2.672c-2.155-5.465-5.782-10.247-11.414-15.05-2.903-2.486-5.943-4.893-8.883-7.222l-.14-.1-4.007-3.188a36.244 36.244 0 0 1-.854-.715l-.83-.712a.992.992 0 0 0-1.064-.127.97.97 0 0 0-.531.934l.12 1.924c.066 1.097.128 2.132.24 3.154 1.042 9.95 4 18.26 9.046 25.398 3.123 4.413 7.603 9.807 14.6 12.358 1.7.624 2.933 1.57 4.254 3.265 1.246 1.588 1.478 3.04 1.45 4.865a201.41 201.41 0 0 1-1.625 22.668c-.225-2.068-.7-4.197-1.432-6.4-1.513-4.58-3.87-9.033-7.2-13.613l-8.974-12.054-3.418-4.546c-.2-.307-.513-.417-.688-.478a.975.975 0 0 0-1.35.572l-.034.104c-.048.14-.086.264-.106.388-2 11.926-.773 22.6 3.75 32.67 2.2 4.918 5.172 10.486 10.396 14.492a16.24 16.24 0 0 1 5.302 7.224c.22.6.2.873.186.975-2.2 9.158-5.1 18-8.6 26.35.904-4.406.842-9.034-.2-13.83-1.465-6.796-3.983-13.382-6.23-19.022l-.673-1.7a5496.505 5496.505 0 0 1-3.208-8.068c-.14-.353-.474-.594-.92-.616a.952.952 0 0 0-.844.527l-.353.664c-.155.3-.3.562-.424.842-4.518 10.194-6.044 20.644-4.533 31.06 1.08 7.448 2.9 12.78 5.934 17.293 1.565 2.332 3.052 4.93 3.322 8.125.064.756.034 1.277-.303 1.87a146.41 146.41 0 0 1-12.773 18.838l.053-.096c3.37-6.157 3.47-12.814 3.127-18.515-.297-4.887-.857-9.767-1.396-14.485l-.03-.273a537.2 537.2 0 0 1-.63-5.672 234.682 234.682 0 0 0-.372-3.235l-.173-1.474a.96.96 0 0 0-.523-.75c-.532-.278-1.393.15-2.323 1.25-6.4 7.56-10.357 16.1-11.8 25.4-1.485 9.63-.68 17.873 2.464 25.197.084.195.082.593.08.726l-.17 4.214c-.025.303-.185.645-.317.772a112.848 112.848 0 0 1-20.948 15.936c3.57-3.226 6.135-7.435 7.798-12.77 1.843-5.912 2.8-12.065 3.706-18.03l.08-.53 1.4-8.743a.965.965 0 0 0-.356-.915.982.982 0 0 0-.975-.134l-.34.14c-.364.15-.68.282-.98.435-14.254 7.12-23.637 23.723-22.3 39.48.208 2.468-.018 4.786-.692 7.082-.063.2-.265.436-.347.474-6.77 2.855-13.207 4.938-19.684 6.368a.968.968 0 0 0-.705.636.967.967 0 0 0 .179.938 15.557 15.557 0 0 1 1.821 2.67 1.01 1.01 0 0 0 1.07.485 111.754 111.754 0 0 0 15.279-4.637c.393-.158.693-.233.974-.187 1.082.144 2.225.366 3.494.68.262.064.48.185.483.174 2.772 5.526 7.536 9.046 14.57 10.76a36.52 36.52 0 0 0 4.69.804c1.656.175 3.503.264 5.488.264 2.75 0 4.7-.17 4.735-.172 6.096-.682 11.302-2.054 15.913-4.195 1.892-.877 4.048-2.058 5.705-4.167a.97.97 0 0 0-.121-1.326c-4.684-4.133-9.453-7.136-14.582-9.18-7.6-3.02-14.52-3.838-21.306-2.533a31.791 31.791 0 0 0-2.966.73c6.347-3.794 12.424-8.253 18.163-13.333a.97.97 0 0 1 .432-.213c.94-.156 2.186-.348 3.462-.44.118 0 .268.057.285.063 3.458 3.87 7.913 5.75 13.62 5.75.3 0 .583-.006.874-.016 6.205-.2 12.443-1.905 18.544-5.07 4.434-2.313 9.056-5.006 12.804-9.022.83-.893 1.573-1.903 2.228-2.794l.064-.087.884-1.18a.98.98 0 0 0 .19-.757.995.995 0 0 0-.46-.669c-.066-.036-1.653-.887-3.102-1.448-9.702-3.75-19.497-4.133-28.84-1.122-3.06.983-5.938 2.46-8.74 4.5 5.184-6.026 9.984-12.632 14.342-19.74.047-.075.17-.278.2-.315.38-.243.77-.473 1.16-.7.697-.4 1.42-.832 2.097-1.336.572-.427.733-.438 1.3-.066.818.53 1.77.807 2.598 1.024 4.85 1.242 9.74.623 15.147-1.916 4.94-2.316 8.738-5.977 12.108-9.587 4.902-5.266 8.105-10.017 10.08-14.953.415-1.036.7-2.107 1.02-3.227l.395-1.402a.965.965 0 0 0-.603-1.194l-.406-.03c-2 0-19.83.293-30.26 10.413a53.968 53.968 0 0 0-6.16 7.104c4.126-8.738 7.625-17.947 10.445-27.506l.04-.14c.034-.117.085-.294.12-.342l2.728-3.746c.102-.15.114-.15.274-.15.07 0 .15.005.238.01l.583.035c2.03.126 3.225.108 4.208-.046 3.884-.613 7.4-2.57 10.717-5.98 7.78-7.98 13.137-17.936 16.373-30.434.347-1.34.444-2.7.548-4.125l.17-2.012a.984.984 0 0 0-.349-.856zM134.608 352.396c-6.47-1.43-12.907-3.512-19.68-6.367a1 1 0 0 1-.345-.469c-.675-2.3-.9-4.62-.693-7.087 1.326-15.757-8.057-32.36-22.308-39.478a13.141 13.141 0 0 0-.983-.436l-.338-.14a.979.979 0 0 0-.971.128.966.966 0 0 0-.362.921l.4 2.416 1 6.324.082.548c.915 5.95 1.86 12.105 3.704 18.017 1.663 5.334 4.23 9.543 7.798 12.768a112.798 112.798 0 0 1-20.947-15.934c-.134-.13-.293-.47-.316-.753l-.17-4.217c-.001-.15-.003-.548.082-.745 3.143-7.322 3.948-15.564 2.463-25.195-1.432-9.3-5.398-17.83-11.8-25.4-.748-.885-1.408-1.333-1.962-1.333a.77.77 0 0 0-.353.077.97.97 0 0 0-.532.756l-.17 1.47a223.819 223.819 0 0 0-.373 3.238 539.962 539.962 0 0 1-.63 5.671l-.03.273c-.54 4.72-1.1 9.6-1.396 14.485-.344 5.7-.242 12.357 3.127 18.515l.052.095a146.45 146.45 0 0 1-12.772-18.836c-.337-.594-.366-1.115-.303-1.87.27-3.197 1.757-5.795 3.322-8.125 3.023-4.512 4.853-9.845 5.934-17.293 1.5-10.416-.015-20.865-4.533-31.06-.124-.28-.27-.552-.424-.843l-.353-.666a.99.99 0 0 0-.911-.522.974.974 0 0 0-.853.611 5288.693 5288.693 0 0 1-3.209 8.07l-.673 1.7c-2.246 5.64-4.765 12.227-6.23 19.022-1.032 4.795-1.095 9.423-.2 13.83-3.512-8.36-6.4-17.192-8.6-26.35-.025-.102-.033-.366.186-.975a16.231 16.231 0 0 1 5.303-7.225c5.223-4.006 8.186-9.574 10.395-14.492 4.523-10.058 5.75-20.743 3.75-32.668a2.569 2.569 0 0 0-.104-.384l-.036-.108a.98.98 0 0 0-.547-.596 1.014 1.014 0 0 0-.777.011c-.2.073-.503.184-.7.473a1652.596 1652.596 0 0 1-3.431 4.563l-.193.257-8.78 11.796c-3.34 4.58-5.697 9.034-7.2 13.614-.73 2.212-1.207 4.34-1.432 6.4a201.393 201.393 0 0 1-1.625-22.668c-.028-1.826.204-3.277 1.45-4.866 1.32-1.694 2.553-2.64 4.253-3.264 6.985-2.552 11.466-7.945 14.6-12.358 5.045-7.14 8.004-15.446 9.046-25.396.1-1.024.174-2.06.24-3.156l.016-.25.106-1.676a.972.972 0 0 0-.532-.933.99.99 0 0 0-1.065.129l-.83.7-.856.716-4.006 3.188-.14.1-8.882 7.22c-5.633 4.804-9.26 9.586-11.415 15.05a34.854 34.854 0 0 0-.936 2.674 196.388 196.388 0 0 1 4.301-25.533c.24-1.015.374-1.313.867-1.475.3-.105.6-.307.8-.557 1.433-1.63 3.32-1.887 5.148-1.924 6.1-.143 10.938-3.186 14.865-6.144 9.63-7.252 16.26-25.652 16.26-26.276a.972.972 0 0 0-.437-.811.986.986 0 0 0-.913-.081l-6.1 2.54c-4.57 1.895-9.295 3.853-13.833 5.994-4.567 2.16-8.176 5.05-10.756 8.607a196.178 196.178 0 0 1 8.502-20.42c.367-.7 2.1-1.464 4.563-1.464.804 0 1.583.086 2.256.248 5.808 1.392 11.567.548 17.94-2.637 6.52-3.26 11.93-8.6 16.54-16.3.088-.15.26-.604.354-.86a.965.965 0 0 0-.124-.917c-.18-.248-.468-.396-.835-.396H94.4l-2.302.145-4.15.246-1.463.074c-4.368.22-8.886.446-13.306 1.5-5.04 1.212-8.742 3.073-11.58 5.833a176.202 176.202 0 0 1 10.745-15.894c.102-.132.6-.334.992-.4.2-.047.928-.2 1.896-.2 1.284 0 2.408.26 3.36.785 6.055 2.96 12.855 3.18 20.238.645 6.056-2.07 11.185-5.912 15.68-11.745.146-.188.278-.393.398-.6a.824.824 0 0 0 .026-.773c-.348-.73-1.854-1.073-2.488-1.187l-5.067-.82-2.5-.364c-2.724-.402-5.54-.818-8.377-.96-5.184-.265-9.787.793-13.554 3.135a143.79 143.79 0 0 1 7.749-7.657c.83-.758 1.77-1.522 3.052-2.48.1-.076.35-.165.66-.183 9.08-.355 16.634-4.363 23.094-12.25 3.52-4.294 6.217-9.7 8.25-16.558l.07-.235c.217-.72.337-1.116-.162-1.58-.385-.358-1.063-.252-2.825.446l-4.863 1.825c-3.32 1.23-6.756 2.504-10.07 3.942-5.54 2.408-9.964 6.058-13.147 10.847-2.424 3.644-3.382 7.305-2.93 11.173a.762.762 0 0 1-.047.158c-5.795 5.02-11.323 10.642-16.99 17.332 3.785-5.787 6.252-12.45 7.5-20.174 1.248-7.787 1.327-14.718.243-21.188-.07-.405-.162-.8-.28-1.317l-.177-.78a.986.986 0 0 0-.663-.71.987.987 0 0 0-.949.224L79.3 36.993l-.267.24c-.97.874-1.886 1.7-2.715 2.632-8.055 9.087-12.753 18.685-14.362 29.343-.733 4.817-.43 8.918.93 12.534.45 1.198 1.152 2.268 1.85 3.33a32.84 32.84 0 0 1 .933 1.472c.216.36.234.452.233.435a120.291 120.291 0 0 1-.582 4.919c-.01.024-.047.08-.162.232l-.093.13a185.76 185.76 0 0 0-12.126 19.259 64.77 64.77 0 0 0 2.502-18.645c-.098-8.803-2.125-16.654-6.2-24.005-.16-.286-.453-.472-.862-.5a.967.967 0 0 0-.77.398 15.88 15.88 0 0 1-.364.482c-.263.34-.5.662-.73 1.006-3.244 5.087-4.984 10.696-6.14 15.015-2.1 7.92-3.08 14.535-3.053 20.816.016 5.34 1 9.443 3.063 12.916.645 1.08 1.457 2.027 2.273 2.98.433.505.878 1.024 1.28 1.556.282.37.418.747.426.957.053 1.266.025 2.553-.002 3.797l-.02.86a1.383 1.383 0 0 1-.088.448 190.258 190.258 0 0 0-6.845 19.6 63.36 63.36 0 0 0 .49-6.679c.236-12.294-3.535-23.273-11.2-32.636l-1.6-1.95a.961.961 0 0 0-.751-.359l-.16.014a.97.97 0 0 0-.749.617l-.428 1.1a35.903 35.903 0 0 0-.735 1.997c-1.647 5.16-2.455 10.795-2.62 18.27l-.003.146c-.123 5.44-.292 12.9 1.942 20.02 2.2 7.02 6.077 10.566 6.83 11.203l.08.072c2.047 1.827 3.38 3.498 3.656 4.583.1.438.224.877.356 1.3.584 1.93.22 3.77-.175 5.758-.196 1.003-.4 2.04-.47 3.102l-.993 13.15-.257 3.2c-.854-9.572-4.024-18.273-9.478-25.968-3.34-4.708-7.322-8.736-11.838-11.975a9.22 9.22 0 0 0-.674-.428 15.954 15.954 0 0 1-.474-.286.997.997 0 0 0-.935-.042.972.972 0 0 0-.537.774 80.582 80.582 0 0 1-.207 1.799c-.15 1.245-.294 2.42-.3 3.63-.067 12.522 2.582 24.256 7.876 34.872 1.475 2.962 3.424 5.524 5.795 7.618 2.35 2.065 4.888 3.283 7.75 3.72a.955.955 0 0 1 .236.12l.477.936c.572 1.105 1.163 2.248 1.457 3.394.245.97.245 2.028.245 3.15l.013 1.23c.275 9.7.636 13.078 2.188 21.745-.947-2.577-2.136-5.16-3.67-7.647-6.216-10.06-14.113-16.9-24.142-20.875-.638-.257-1.278-.442-2.02-.658l-.148-.044-.96-.286a.97.97 0 0 0-1.258 1.03c.074.688.125 1.357.172 2 .103 1.432.2 2.784.547 4.122 3.236 12.5 8.592 22.454 16.373 30.435 3.327 3.412 6.833 5.368 10.718 5.98.98.153 2.178.172 4.206.046l.584-.035c.1-.005.167-.01.238-.01.16 0 .173 0 .284.164l2.717 3.73c.035.05.086.226.12.348l.04.134c2.82 9.56 6.32 18.768 10.445 27.507a53.914 53.914 0 0 0-6.16-7.104c-10.43-10.12-28.262-10.413-30.26-10.413l-.25.002-.157.03a.964.964 0 0 0-.604 1.191 57.05 57.05 0 0 1 .418 1.487c.285 1.037.58 2.108.996 3.144 1.976 4.938 5.18 9.688 10.082 14.954 3.37 3.6 7.167 7.27 12.106 9.586 5.4 2.54 10.293 3.16 15.15 1.916.826-.217 1.776-.492 2.593-1.022.582-.373.74-.36 1.313.065.678.504 1.4.927 2.1 1.337l1.14.686c.058.05.182.252.228.327 4.358 7.108 9.16 13.714 14.343 19.74-2.804-2.04-5.683-3.516-8.74-4.5-9.345-3-19.14-2.628-28.84 1.123-1.448.56-3.035 1.4-3.14 1.47a.97.97 0 0 0-.234 1.399l.95 1.27c.655.892 1.397 1.9 2.23 2.795 3.747 4.017 8.368 6.7 12.804 9.022 6.1 3.165 12.338 4.87 18.542 5.07a25.58 25.58 0 0 0 .875.016c5.707 0 10.162-1.88 13.596-5.728a.691.691 0 0 1 .273-.088c1.312.094 2.56.285 3.5.44a.982.982 0 0 1 .441.216c5.737 5.08 11.813 9.537 18.16 13.33a32.46 32.46 0 0 0-2.967-.732c-6.783-1.304-13.705-.486-21.306 2.534-5.128 2.044-9.897 5.047-14.58 9.18a.969.969 0 0 0-.122 1.326c1.657 2.1 3.813 3.3 5.704 4.166 4.612 2.143 9.818 3.515 15.92 4.197.018.001 1.98.17 4.73.17 1.985 0 3.832-.1 5.487-.264a36.392 36.392 0 0 0 4.691-.805c7.032-1.712 11.797-5.232 14.527-10.697.05-.047.26-.17.525-.234a32.059 32.059 0 0 1 3.497-.682c.256-.04.575.028.977.2a111.716 111.716 0 0 0 15.264 4.632.967.967 0 0 0 1.08-.486 15.591 15.591 0 0 1 1.821-2.669.966.966 0 0 0-.528-1.568zm112.307-129.054l40.18-39.166a5 5 0 0 0-2.771-8.529l-55.523-8.063-24.835-50.313a4.998 4.998 0 0 0-8.966 0l-24.826 50.313-55.532 8.063a5 5 0 0 0-2.771 8.529l40.18 39.166-9.48 55.3a4.997 4.997 0 0 0 7.254 5.27l49.66-26.105 49.66 26.105a4.995 4.995 0 0 0 5.264-.381 4.994 4.994 0 0 0 1.989-4.889l-9.483-55.3z" fill="#fff"/></svg>