<svg xmlns="http://www.w3.org/2000/svg" width="512" height="512" viewBox="0 0 548.165 548.165"><path d="M526.76 131.045c-14.277-14.274-31.498-21.413-51.675-21.413h-63.953l-14.558-38.826c-3.618-9.325-10.23-17.368-19.846-24.128s-19.462-10.138-29.55-10.138h-146.18c-10.088 0-19.94 3.38-29.552 10.138S155.22 61.48 151.602 70.806l-14.56 38.826H73.1c-20.18 0-37.4 7.14-51.678 21.413S0 162.544 0 182.72v255.813c0 20.178 7.137 37.404 21.4 51.675 14.277 14.277 31.5 21.416 51.678 21.416h402c20.177 0 37.397-7.14 51.675-21.416 14.273-14.27 21.412-31.497 21.412-51.675V182.72c.004-20.177-7.135-37.4-21.405-51.676zM364.446 400.993c-25.03 25.03-55.147 37.548-90.362 37.548s-65.33-12.518-90.362-37.548-37.544-55.15-37.544-90.358c0-35.218 12.517-65.333 37.544-90.364s55.148-37.544 90.362-37.544 65.333 12.516 90.362 37.544 37.545 55.146 37.545 90.364c0 35.207-12.514 65.33-37.545 90.358zm-90.362-172.6c-22.65 0-42.018 8.042-58.102 24.128s-24.126 35.448-24.126 58.104c0 22.647 8.042 42.014 24.126 58.098s35.45 24.123 58.102 24.123 42.017-8.042 58.1-24.123 24.127-35.45 24.127-58.098c0-22.655-8.043-42.02-24.127-58.104s-35.453-24.128-58.1-24.128z" fill="#fe5b60"/></svg>