<svg xmlns="http://www.w3.org/2000/svg" width="91" height="91" viewBox="0 0 90.001 90.001" fill="#ffffff"><path d="M89.938 13.69H71.332L70 13.92v1.788c0 .2.635.386.81.517.168.142.623.22.81.22l1.686.084c1.912.1 2.494.505 3.24 1.205.73.725.85 1.955.28 3.684l-16.445 42.93-.628-.188L49.31 40.66l.242-.55 8.553-17.578 2.446-4.283c.894-1.408 1.328-1.674 3.763-1.797.498 0 .688-.244.688-.738v-1.778l-.125-.19s-10.224-.035-14.88 0l.003.183v1.78c0 .217-.12.4.045.52.176.142.25.215.44.215l.697.09c1.902.1 2.754.636 3.012.98.455.615.668 1.27-.434 3.91l-6.585 14.42-5.95-13.376c-1.95-4.274-2.434-5.597.508-5.844l.8-.183c.566 0 .478-.224.478-.65v-1.87l-.06-.153-15.873.003-.067.183v1.875c0 .42.415.53 1.185.645 2.755.396 2.707.713 5.43 6.646l1.61 3.57 6.204 13.39 1.805 4.4-9.016 19.763-.515-.146L15.664 20.82c-.426-1.117-.61-1.953-.61-2.468 0-1.102.904-1.7 2.712-1.78l2.75-.1c.563 0 1.484-.236 1.484-.727V13.97l-.83-.184s-17.14-.02-20.602 0L0 13.97v1.872c0 .336.448.545 1.227.634 2.13.13 3.56.5 4.23 1.123s1.393 2.215 2.333 4.688c5.087 13.424 15.902 37.38 21.166 51.026 1.513 3.723 3.424 4.303 5.733-.117 2.38-4.848 7.178-15.608 10.68-23.552l9.885 23.5c1.712 3.887 3.665 4.27 5.646.116l20.32-50.736c.654-1.87 1.568-3.31 2.746-4.355 1.17-1.033 2.91-1.617 5.35-1.73.494 0 .688-.25.688-.73V13.92l-.062-.23z"/></svg>